# xmcd
#
# Track frame offsets:
#	150
#	9070
#	29297
#	48235
#	60892
#	76200
#	87837
#	100287
#	116725
#	129420
#	148442
#	163807
#	182330
#
# Disc length: 2587 seconds
#
# Revision: 3
# Processed by: cddbd v1.5PL3 Copyright (c) Steve Scherf et al.
# Submitted via: audiograbber 1.83.01
#
DISCID=9b0a190d
DTITLE=Buddy Miller - Poison Love
DYEAR=1997
DGENRE=Country
TTITLE0=Nothing Can Stop Me
TTITLE1=100 Million Little Bombs
TTITLE2=Don't Tell Me
TTITLE3=Poison Love
TTITLE4=Baby Don't Let Me Down
TTITLE5=Love Grows Wild
TTITLE6=Love In The Ruins
TTITLE7=Draggin The River
TTITLE8=Help Wanted
TTITLE9=That's How Strong My Love Is
TTITLE10=Lonesome For You
TTITLE11=I Can't Help It
TTITLE12=Love Snuck Up
EXTD=
EXTT0=
EXTT1=
EXTT2=
EXTT3=
EXTT4=
EXTT5=
EXTT6=
EXTT7=
EXTT8=
EXTT9=
EXTT10=
EXTT11=
EXTT12=
PLAYORDER=
